<svg width="48" height="48" viewBox="0 0 48 48" fill="none" xmlns="http://www.w3.org/2000/svg">
<rect width="48" height="48" rx="24" fill="url(#paint0_linear_11_46)"/>
<path d="M17.628 32.556C17.276 32.556 16.9 32.532 16.5 32.484C16.1 32.436 15.676 32.356 15.228 32.244L15.516 27.708C15.74 27.756 15.948 27.78 16.14 27.78C16.764 27.78 17.228 27.524 17.532 27.012C17.836 26.5 18.044 25.812 18.156 24.948C18.268 24.068 18.34 23.084 18.372 21.996L18.588 15.444H32.772V32.244H27.204V18.636L28.428 19.836H22.308L23.412 18.564L23.316 21.78C23.268 23.396 23.156 24.868 22.98 26.196C22.82 27.508 22.54 28.644 22.14 29.604C21.74 30.548 21.172 31.276 20.436 31.788C19.716 32.3 18.78 32.556 17.628 32.556Z" fill="white"/>
<defs>
<linearGradient id="paint0_linear_11_46" x1="0" y1="0" x2="48" y2="48" gradientUnits="userSpaceOnUse">
<stop stop-color="#096AFB"/>
<stop offset="1" stop-color="#6827F1"/>
</linearGradient>
</defs>
</svg>
